<svg width="1022" height="237" viewBox="0 0 1022 237" fill="none" xmlns="http://www.w3.org/2000/svg">
<path d="M90.6836 187.587C77.7289 187.587 65.7241 185.255 54.6694 180.591C43.6146 175.755 33.9417 169.105 25.6507 160.641C17.5324 152.177 11.2277 142.332 6.73672 131.104C2.24573 119.877 0.000239592 107.872 0.000239592 95.09C0.000239592 82.1352 2.24573 70.0441 6.73672 58.8166C11.2277 47.5891 17.5324 37.8299 25.6507 29.5388C33.9417 21.075 43.5283 14.5113 54.4103 9.84757C65.465 5.01112 77.4698 2.5929 90.4246 2.5929C104.588 2.5929 117.025 5.01112 127.734 9.84757C138.444 14.684 147.944 21.2478 156.235 29.5388L139.394 46.38C133.693 39.989 126.698 34.9798 118.407 31.3525C110.289 27.7252 100.961 25.9115 90.4246 25.9115C80.9244 25.9115 72.2015 27.6388 64.2559 31.0934C56.3103 34.3753 49.4011 39.1254 43.5283 45.3436C37.6554 51.5619 33.0781 58.903 29.7962 67.3668C26.6871 75.8305 25.1325 85.0716 25.1325 95.09C25.1325 105.108 26.6871 114.349 29.7962 122.813C33.0781 131.277 37.6554 138.618 43.5283 144.836C49.4011 151.055 56.3103 155.891 64.2559 159.346C72.2015 162.628 80.9244 164.268 90.4246 164.268C101.652 164.268 111.411 162.455 119.702 158.827C127.993 155.027 134.989 149.932 140.689 143.541L157.53 160.123C149.239 168.759 139.48 175.496 128.252 180.332C117.198 185.169 104.675 187.587 90.6836 187.587ZM162.577 184.996V0.00194584H185.895V184.996H162.577ZM256.286 187.587C244.022 187.587 232.968 184.823 223.122 179.296C213.276 173.596 205.503 165.909 199.803 156.236C194.103 146.564 191.253 135.595 191.253 123.331C191.253 111.24 194.017 100.358 199.544 90.6854C205.244 81.0125 212.844 73.4123 222.345 67.885C232.018 62.1849 242.813 59.3348 254.732 59.3348C266.132 59.3348 276.15 61.9258 284.787 67.1077C293.596 72.2896 300.419 79.4579 305.255 88.6126C310.264 97.7673 312.769 108.131 312.769 119.704C312.769 121.431 312.683 123.331 312.51 125.404C312.337 127.304 311.992 129.55 311.473 132.141H207.576V112.708H299.037L290.487 120.222C290.487 111.931 289.019 104.936 286.082 99.2355C283.146 93.3627 279 88.8717 273.646 85.7625C268.291 82.4807 261.813 80.8397 254.213 80.8397C246.268 80.8397 239.272 82.567 233.227 86.0216C227.181 89.4762 222.517 94.3127 219.235 100.531C215.954 106.749 214.313 114.09 214.313 122.554C214.313 131.191 216.04 138.791 219.495 145.354C222.949 151.746 227.872 156.755 234.263 160.382C240.654 163.837 247.995 165.564 256.286 165.564C263.195 165.564 269.5 164.355 275.2 161.937C281.073 159.518 286.082 155.891 290.228 151.055L305.255 166.341C299.382 173.25 292.128 178.519 283.491 182.146C275.027 185.773 265.959 187.587 256.286 187.587ZM369.804 187.587C358.577 187.587 348.386 184.823 339.231 179.296C330.076 173.596 322.822 165.909 317.467 156.236C312.285 146.564 309.694 135.682 309.694 123.59C309.694 111.499 312.285 100.617 317.467 90.9445C322.822 81.2716 329.99 73.5851 338.972 67.885C348.127 62.1849 358.404 59.3348 369.804 59.3348C379.132 59.3348 387.423 61.3212 394.677 65.294C402.105 69.0941 408.064 74.4487 412.555 81.3579C417.046 88.0944 419.551 95.9536 420.069 104.936V141.986C419.551 150.795 417.046 158.655 412.555 165.564C408.237 172.473 402.364 177.914 394.937 181.887C387.682 185.687 379.304 187.587 369.804 187.587ZM373.691 165.564C385.264 165.564 394.591 161.678 401.673 153.905C408.755 145.959 412.296 135.854 412.296 123.59C412.296 115.127 410.655 107.786 407.373 101.567C404.264 95.1763 399.773 90.2535 393.9 86.7989C388.027 83.1716 381.205 81.3579 373.432 81.3579C365.659 81.3579 358.75 83.1716 352.704 86.7989C346.831 90.4263 342.167 95.4354 338.713 101.826C335.431 108.045 333.79 115.213 333.79 123.331C333.79 131.622 335.431 138.963 338.713 145.354C342.167 151.573 346.918 156.496 352.963 160.123C359.009 163.75 365.918 165.564 373.691 165.564ZM410.741 184.996V151.832L415.146 121.777L410.741 91.9808V61.9258H434.319V184.996H410.741ZM534.597 184.996V113.227C534.597 103.899 531.661 96.2127 525.788 90.1672C519.915 84.1216 512.315 81.0988 502.987 81.0988C496.769 81.0988 491.242 82.4807 486.405 85.2443C481.569 88.008 477.769 91.8081 475.005 96.6445C472.241 101.481 470.86 107.008 470.86 113.227L461.273 107.786C461.273 98.4582 463.346 90.1672 467.491 82.9125C471.637 75.6578 477.423 69.9577 484.851 65.8122C492.278 61.4939 500.656 59.3348 509.983 59.3348C519.31 59.3348 527.515 61.6667 534.597 66.3304C541.852 70.9941 547.552 77.126 551.697 84.7262C555.843 92.1536 557.916 100.099 557.916 108.563V184.996H534.597ZM447.541 184.996V61.9258H470.86V184.996H447.541ZM622.91 187.587C608.746 187.587 596.655 184.996 586.637 179.814C576.618 174.632 567.723 167.119 559.95 157.273L576.532 140.691C582.232 148.636 588.796 154.682 596.223 158.827C603.651 162.8 612.805 164.787 623.687 164.787C634.397 164.787 642.947 162.455 649.338 157.791C655.902 153.127 659.184 146.736 659.184 138.618C659.184 131.882 657.629 126.441 654.52 122.295C651.411 118.149 647.179 114.781 641.824 112.19C636.642 109.427 630.942 107.008 624.724 104.936C618.506 102.69 612.287 100.358 606.069 97.94C599.851 95.3491 594.151 92.2399 588.969 88.6126C583.787 84.8125 579.555 79.8897 576.273 73.8441C573.164 67.7986 571.609 60.1985 571.609 51.0438C571.609 40.8527 574.028 32.2161 578.864 25.1342C583.873 17.8795 590.61 12.3522 599.073 8.55209C607.71 4.5793 617.383 2.5929 628.092 2.5929C639.838 2.5929 650.374 4.92476 659.702 9.58848C669.029 14.0795 676.629 20.0387 682.502 27.4661L665.92 44.0482C660.565 37.8299 654.779 33.1662 648.561 30.057C642.515 26.9479 635.519 25.3933 627.574 25.3933C617.901 25.3933 610.215 27.5524 604.514 31.8707C598.814 36.0162 595.964 41.889 595.964 49.4892C595.964 55.5347 597.519 60.4575 600.628 64.2576C603.91 67.885 608.142 70.9941 613.324 73.5851C618.506 76.176 624.206 78.5942 630.424 80.8397C636.815 82.9125 643.12 85.2443 649.338 87.8353C655.556 90.4263 661.256 93.7081 666.438 97.6809C671.62 101.654 675.766 106.836 678.875 113.227C682.157 119.445 683.798 127.304 683.798 136.804C683.798 152.696 678.27 165.132 667.215 174.114C656.333 183.096 641.565 187.587 622.91 187.587ZM727.36 186.032L673.986 61.9258H699.896L739.538 159.087H731.247L772.961 61.9258H798.87L741.351 186.032H727.36ZM692.123 236.556L728.396 162.196L741.351 186.032L718.033 236.556H692.123ZM883.323 184.996V113.227C883.323 103.899 880.387 96.2127 874.514 90.1672C868.641 84.1216 861.041 81.0988 851.714 81.0988C845.495 81.0988 839.968 82.4807 835.132 85.2443C830.295 88.008 826.495 91.8081 823.731 96.6445C820.968 101.481 819.586 107.008 819.586 113.227L809.999 107.786C809.999 98.4582 812.072 90.1672 816.218 82.9125C820.363 75.6578 826.15 69.9577 833.577 65.8122C841.004 61.4939 849.382 59.3348 858.709 59.3348C868.037 59.3348 876.241 61.6667 883.323 66.3304C890.578 70.9941 896.278 77.126 900.424 84.7262C904.569 92.1536 906.642 100.099 906.642 108.563V184.996H883.323ZM796.267 184.996V61.9258H819.586V184.996H796.267ZM973.709 187.587C961.618 187.587 950.65 184.737 940.804 179.037C931.131 173.337 923.445 165.65 917.745 155.977C912.217 146.132 909.454 135.25 909.454 123.331C909.454 111.24 912.217 100.358 917.745 90.6854C923.445 81.0125 931.131 73.4123 940.804 67.885C950.65 62.1849 961.618 59.3348 973.709 59.3348C983.209 59.3348 992.019 61.1485 1000.14 64.7758C1008.26 68.2304 1015.25 73.326 1021.12 80.0624L1005.58 95.6082C1001.78 91.1172 997.114 87.7489 991.587 85.5034C986.232 83.0852 980.273 81.8761 973.709 81.8761C965.936 81.8761 959.027 83.6898 952.982 87.3171C946.936 90.7717 942.186 95.6082 938.731 101.826C935.277 108.045 933.549 115.213 933.549 123.331C933.549 131.45 935.277 138.618 938.731 144.836C942.186 151.055 946.936 155.977 952.982 159.605C959.027 163.232 965.936 165.046 973.709 165.046C980.273 165.046 986.232 163.923 991.587 161.678C997.114 159.259 1001.86 155.805 1005.84 151.314L1021.12 166.859C1015.42 173.423 1008.43 178.519 1000.14 182.146C992.019 185.773 983.209 187.587 973.709 187.587Z" fill="white"/>
</svg>
