<svg xmlns="http://www.w3.org/2000/svg" version="1.1" xmlns:xlink="http://www.w3.org/1999/xlink" width="386" height="374"><svg width="386" height="374" viewBox="0 0 386 374" fill="none" xmlns="http://www.w3.org/2000/svg">
<circle cx="276.318" cy="85.6256" r="40.8639" fill="#EFF6E0" data-darkreader-inline-fill="" style="--darkreader-inline-fill: var(--darkreader-background-eff6e0, #364214);"></circle>
<path d="M140.132 289.743C140.132 312.311 121.836 330.607 99.2677 330.607C76.6992 330.607 58.4038 312.311 58.4038 289.743C58.4038 267.174 76.6992 248.879 99.2677 248.879C121.836 248.879 140.132 267.174 140.132 289.743Z" fill="#EFF6E0" data-darkreader-inline-fill="" style="--darkreader-inline-fill: var(--darkreader-background-eff6e0, #364214);"></path>
<path d="M176.284 330.255C167.828 323.075 172.986 308.955 184.047 308.111C266.635 301.812 302.782 265.268 309.14 152.799C309.825 140.685 324.14 134.138 333.389 141.992C336.755 144.85 338.621 149.172 338.392 153.582C331.579 284.724 291.63 323.599 184.957 333.017C181.829 333.293 178.678 332.288 176.284 330.255Z" fill="#EFF6E0" data-darkreader-inline-fill="" style="--darkreader-inline-fill: var(--darkreader-background-eff6e0, #364214);"></path>
<path d="M209.715 43.3152C218.171 50.4952 213.013 64.6151 201.952 65.4588C119.364 71.7587 83.2172 108.303 76.8593 220.771C76.1744 232.885 61.8596 239.432 52.6105 231.578C49.2443 228.72 47.3782 224.399 47.6073 219.989C54.42 88.8462 94.3697 49.9715 201.043 40.5531C204.171 40.277 207.322 41.2827 209.715 43.3152Z" fill="#EFF6E0" data-darkreader-inline-fill="" style="--darkreader-inline-fill: var(--darkreader-background-eff6e0, #364214);"></path>
</svg><style>@media (prefers-color-scheme: light) { :root { filter: contrast(1) brightness(1); } }
@media (prefers-color-scheme: dark) { :root { filter: none; } }
</style></svg>